<mxfile host="Electron" modified="2024-11-05T01:48:06.695Z" agent="Mozilla/5.0 (Windows NT 10.0; Win64; x64) AppleWebKit/537.36 (KHTML, like Gecko) draw.io/24.4.13 Chrome/124.0.6367.207 Electron/30.0.6 Safari/537.36" etag="_TrBF8Ol847CzyUrU0TK" version="24.4.13" type="device">
  <diagram name="ページ1" id="RMcFyHlmZP2taF3hbCAl">
    <mxGraphModel dx="903" dy="527" grid="1" gridSize="10" guides="1" tooltips="1" connect="1" arrows="1" fold="1" page="1" pageScale="1" pageWidth="827" pageHeight="1169" math="0" shadow="0">
      <root>
        <mxCell id="0" />
        <mxCell id="1" parent="0" />
        <mxCell id="GEW3RkoJD5aT_qqB_MN--1" value="start" style="ellipse;whiteSpace=wrap;html=1;" vertex="1" parent="1">
          <mxGeometry x="110" y="250" width="70" height="70" as="geometry" />
        </mxCell>
        <mxCell id="GEW3RkoJD5aT_qqB_MN--2" value="q_11" style="ellipse;whiteSpace=wrap;html=1;" vertex="1" parent="1">
          <mxGeometry x="240" y="130" width="120" height="80" as="geometry" />
        </mxCell>
      </root>
    </mxGraphModel>
  </diagram>
</mxfile>
